<svg width="246" height="41" viewBox="0 0 246 41" fill="none" xmlns="http://www.w3.org/2000/svg">
<path d="M19.1423 1.93096C19.5306 1.28312 20.4694 1.28311 20.8577 1.93096L27.3666 12.7898C27.4511 12.9309 27.5691 13.0489 27.7102 13.1334L38.569 19.6423C39.2169 20.0306 39.2169 20.9694 38.569 21.3577L27.7102 27.8666C27.5691 27.9511 27.4511 28.0691 27.3666 28.2102L20.8577 39.069C20.4694 39.7169 19.5306 39.7169 19.1423 39.069L12.6334 28.2102C12.5489 28.0691 12.4309 27.9511 12.2898 27.8666L1.43096 21.3577C0.783116 20.9694 0.783115 20.0306 1.43096 19.6423L12.2898 13.1334C12.4309 13.0489 12.5489 12.9309 12.6334 12.7898L19.1423 1.93096Z" fill="#0075FF"/>
<path d="M52.0227 32V8.72727H56.9432V27.9432H66.9205V32H52.0227ZM78.0426 32.3409C76.2472 32.3409 74.7017 31.9773 73.4062 31.25C72.1184 30.5152 71.1259 29.4773 70.429 28.1364C69.732 26.7879 69.3835 25.1932 69.3835 23.3523C69.3835 21.5568 69.732 19.9811 70.429 18.625C71.1259 17.2689 72.107 16.2121 73.3722 15.4545C74.6449 14.697 76.1373 14.3182 77.8494 14.3182C79.0009 14.3182 80.0729 14.5038 81.0653 14.875C82.0653 15.2386 82.9366 15.7879 83.679 16.5227C84.429 17.2576 85.0123 18.1818 85.429 19.2955C85.8456 20.4015 86.054 21.697 86.054 23.1818V24.5114H71.3153V21.5114H81.4972C81.4972 20.8144 81.3456 20.197 81.0426 19.6591C80.7396 19.1212 80.3191 18.7008 79.7812 18.3977C79.2509 18.0871 78.6335 17.9318 77.929 17.9318C77.1941 17.9318 76.5426 18.1023 75.9744 18.4432C75.4138 18.7765 74.9744 19.2273 74.6562 19.7955C74.3381 20.3561 74.1752 20.9811 74.1676 21.6705V24.5227C74.1676 25.3864 74.3267 26.1326 74.6449 26.7614C74.9706 27.3902 75.429 27.875 76.0199 28.2159C76.6108 28.5568 77.3116 28.7273 78.1222 28.7273C78.66 28.7273 79.1525 28.6515 79.5994 28.5C80.0464 28.3485 80.429 28.1212 80.7472 27.8182C81.0653 27.5152 81.3078 27.1439 81.4744 26.7045L85.9517 27C85.7244 28.0758 85.2585 29.0152 84.554 29.8182C83.857 30.6136 82.9555 31.2348 81.8494 31.6818C80.7509 32.1212 79.482 32.3409 78.0426 32.3409ZM94.1903 32.3295C93.0767 32.3295 92.0843 32.1364 91.2131 31.75C90.3419 31.3561 89.6525 30.7765 89.1449 30.0114C88.6449 29.2386 88.3949 28.2765 88.3949 27.125C88.3949 26.1553 88.5729 25.3409 88.929 24.6818C89.285 24.0227 89.7699 23.4924 90.3835 23.0909C90.9972 22.6894 91.6941 22.3864 92.4744 22.1818C93.2623 21.9773 94.0881 21.8333 94.9517 21.75C95.9669 21.6439 96.785 21.5455 97.4062 21.4545C98.0275 21.3561 98.4782 21.2121 98.7585 21.0227C99.0388 20.8333 99.179 20.553 99.179 20.1818V20.1136C99.179 19.3939 98.9517 18.8371 98.4972 18.4432C98.0502 18.0492 97.4138 17.8523 96.5881 17.8523C95.7169 17.8523 95.0237 18.0455 94.5085 18.4318C93.9934 18.8106 93.6525 19.2879 93.4858 19.8636L89.0085 19.5C89.2358 18.4394 89.6828 17.5227 90.3494 16.75C91.0161 15.9697 91.8759 15.3712 92.929 14.9545C93.9896 14.5303 95.2169 14.3182 96.6108 14.3182C97.5805 14.3182 98.5085 14.4318 99.3949 14.6591C100.289 14.8864 101.08 15.2386 101.77 15.7159C102.467 16.1932 103.016 16.8068 103.418 17.5568C103.819 18.2992 104.02 19.1894 104.02 20.2273V32H99.429V29.5795H99.2926C99.0123 30.125 98.6373 30.6061 98.1676 31.0227C97.6979 31.4318 97.1335 31.7538 96.4744 31.9886C95.8153 32.2159 95.054 32.3295 94.1903 32.3295ZM95.5767 28.9886C96.2888 28.9886 96.9176 28.8485 97.4631 28.5682C98.0085 28.2803 98.4366 27.8939 98.7472 27.4091C99.0578 26.9242 99.2131 26.375 99.2131 25.7614V23.9091C99.0616 24.0076 98.8532 24.0985 98.5881 24.1818C98.3305 24.2576 98.0388 24.3295 97.7131 24.3977C97.3873 24.4583 97.0616 24.5152 96.7358 24.5682C96.41 24.6136 96.1146 24.6553 95.8494 24.6932C95.2813 24.7765 94.785 24.9091 94.3608 25.0909C93.9366 25.2727 93.607 25.5189 93.3722 25.8295C93.1373 26.1326 93.0199 26.5114 93.0199 26.9659C93.0199 27.625 93.2585 28.1288 93.7358 28.4773C94.2206 28.8182 94.8343 28.9886 95.5767 28.9886ZM107.776 32V14.5455H112.469V17.5909H112.651C112.969 16.5076 113.503 15.6894 114.253 15.1364C115.003 14.5758 115.866 14.2955 116.844 14.2955C117.086 14.2955 117.348 14.3106 117.628 14.3409C117.908 14.3712 118.154 14.4129 118.366 14.4659V18.7614C118.139 18.6932 117.825 18.6326 117.423 18.5795C117.022 18.5265 116.654 18.5 116.321 18.5C115.609 18.5 114.973 18.6553 114.412 18.9659C113.859 19.2689 113.42 19.6932 113.094 20.2386C112.776 20.7841 112.616 21.4129 112.616 22.125V32H107.776ZM125.71 21.9091V32H120.869V14.5455H125.483V17.625H125.688C126.074 16.6098 126.722 15.8068 127.631 15.2159C128.54 14.6174 129.642 14.3182 130.938 14.3182C132.15 14.3182 133.206 14.5833 134.108 15.1136C135.009 15.6439 135.71 16.4015 136.21 17.3864C136.71 18.3636 136.96 19.5303 136.96 20.8864V32H132.119V21.75C132.127 20.6818 131.854 19.8485 131.301 19.25C130.748 18.6439 129.987 18.3409 129.017 18.3409C128.366 18.3409 127.79 18.4811 127.29 18.7614C126.797 19.0417 126.411 19.4508 126.131 19.9886C125.858 20.5189 125.718 21.1591 125.71 21.9091ZM148.662 32.3409C146.897 32.3409 145.37 31.9659 144.082 31.2159C142.802 30.4583 141.813 29.4053 141.116 28.0568C140.42 26.7008 140.071 25.1288 140.071 23.3409C140.071 21.5379 140.42 19.9621 141.116 18.6136C141.813 17.2576 142.802 16.2045 144.082 15.4545C145.37 14.697 146.897 14.3182 148.662 14.3182C150.427 14.3182 151.95 14.697 153.23 15.4545C154.518 16.2045 155.51 17.2576 156.207 18.6136C156.904 19.9621 157.253 21.5379 157.253 23.3409C157.253 25.1288 156.904 26.7008 156.207 28.0568C155.51 29.4053 154.518 30.4583 153.23 31.2159C151.95 31.9659 150.427 32.3409 148.662 32.3409ZM148.685 28.5909C149.488 28.5909 150.158 28.3636 150.696 27.9091C151.234 27.447 151.639 26.8182 151.912 26.0227C152.192 25.2273 152.332 24.322 152.332 23.3068C152.332 22.2917 152.192 21.3864 151.912 20.5909C151.639 19.7955 151.234 19.1667 150.696 18.7045C150.158 18.2424 149.488 18.0114 148.685 18.0114C147.874 18.0114 147.192 18.2424 146.639 18.7045C146.094 19.1667 145.681 19.7955 145.401 20.5909C145.128 21.3864 144.991 22.2917 144.991 23.3068C144.991 24.322 145.128 25.2273 145.401 26.0227C145.681 26.8182 146.094 27.447 146.639 27.9091C147.192 28.3636 147.874 28.5909 148.685 28.5909Z" fill="black"/>
<path d="M160.491 32V8.72727H169.673C171.438 8.72727 172.942 9.06439 174.185 9.73864C175.427 10.4053 176.374 11.3333 177.026 12.5227C177.685 13.7045 178.014 15.0682 178.014 16.6136C178.014 18.1591 177.681 19.5227 177.014 20.7045C176.348 21.8864 175.382 22.8068 174.116 23.4659C172.859 24.125 171.336 24.4545 169.548 24.4545H163.696V20.5114H168.753C169.7 20.5114 170.48 20.3485 171.094 20.0227C171.715 19.6894 172.177 19.2311 172.48 18.6477C172.791 18.0568 172.946 17.3788 172.946 16.6136C172.946 15.8409 172.791 15.1667 172.48 14.5909C172.177 14.0076 171.715 13.5568 171.094 13.2386C170.473 12.9129 169.685 12.75 168.73 12.75H165.412V32H160.491ZM181.119 32V14.5455H185.96V32H181.119ZM183.551 12.2955C182.831 12.2955 182.214 12.0568 181.699 11.5795C181.191 11.0947 180.938 10.5152 180.938 9.84091C180.938 9.17424 181.191 8.60227 181.699 8.125C182.214 7.64015 182.831 7.39773 183.551 7.39773C184.271 7.39773 184.884 7.64015 185.392 8.125C185.907 8.60227 186.165 9.17424 186.165 9.84091C186.165 10.5152 185.907 11.0947 185.392 11.5795C184.884 12.0568 184.271 12.2955 183.551 12.2955ZM196.27 32.2841C194.944 32.2841 193.743 31.9432 192.668 31.2614C191.599 30.572 190.751 29.5606 190.122 28.2273C189.501 26.8864 189.19 25.2424 189.19 23.2955C189.19 21.2955 189.512 19.6326 190.156 18.3068C190.8 16.9735 191.656 15.9773 192.724 15.3182C193.8 14.6515 194.978 14.3182 196.259 14.3182C197.236 14.3182 198.05 14.4848 198.702 14.8182C199.361 15.1439 199.891 15.553 200.293 16.0455C200.702 16.5303 201.012 17.0076 201.224 17.4773H201.372V8.72727H206.202V32H201.429V29.2045H201.224C200.997 29.6894 200.675 30.1705 200.259 30.6477C199.849 31.1174 199.315 31.5076 198.656 31.8182C198.005 32.1288 197.209 32.2841 196.27 32.2841ZM197.804 28.4318C198.584 28.4318 199.243 28.2197 199.781 27.7955C200.327 27.3636 200.743 26.7614 201.031 25.9886C201.327 25.2159 201.474 24.3106 201.474 23.2727C201.474 22.2348 201.33 21.3333 201.043 20.5682C200.755 19.803 200.338 19.2121 199.793 18.7955C199.247 18.3788 198.584 18.1705 197.804 18.1705C197.009 18.1705 196.338 18.3864 195.793 18.8182C195.247 19.25 194.834 19.8485 194.554 20.6136C194.274 21.3788 194.134 22.2652 194.134 23.2727C194.134 24.2879 194.274 25.1856 194.554 25.9659C194.842 26.7386 195.255 27.3447 195.793 27.7841C196.338 28.2159 197.009 28.4318 197.804 28.4318ZM218.136 32.3409C216.341 32.3409 214.795 31.9773 213.5 31.25C212.212 30.5152 211.22 29.4773 210.523 28.1364C209.826 26.7879 209.477 25.1932 209.477 23.3523C209.477 21.5568 209.826 19.9811 210.523 18.625C211.22 17.2689 212.201 16.2121 213.466 15.4545C214.739 14.697 216.231 14.3182 217.943 14.3182C219.095 14.3182 220.167 14.5038 221.159 14.875C222.159 15.2386 223.03 15.7879 223.773 16.5227C224.523 17.2576 225.106 18.1818 225.523 19.2955C225.939 20.4015 226.148 21.697 226.148 23.1818V24.5114H211.409V21.5114H221.591C221.591 20.8144 221.439 20.197 221.136 19.6591C220.833 19.1212 220.413 18.7008 219.875 18.3977C219.345 18.0871 218.727 17.9318 218.023 17.9318C217.288 17.9318 216.636 18.1023 216.068 18.4432C215.508 18.7765 215.068 19.2273 214.75 19.7955C214.432 20.3561 214.269 20.9811 214.261 21.6705V24.5227C214.261 25.3864 214.42 26.1326 214.739 26.7614C215.064 27.3902 215.523 27.875 216.114 28.2159C216.705 28.5568 217.405 28.7273 218.216 28.7273C218.754 28.7273 219.246 28.6515 219.693 28.5C220.14 28.3485 220.523 28.1212 220.841 27.8182C221.159 27.5152 221.402 27.1439 221.568 26.7045L226.045 27C225.818 28.0758 225.352 29.0152 224.648 29.8182C223.951 30.6136 223.049 31.2348 221.943 31.6818C220.845 32.1212 219.576 32.3409 218.136 32.3409ZM234.284 32.3295C233.17 32.3295 232.178 32.1364 231.307 31.75C230.436 31.3561 229.746 30.7765 229.239 30.0114C228.739 29.2386 228.489 28.2765 228.489 27.125C228.489 26.1553 228.667 25.3409 229.023 24.6818C229.379 24.0227 229.864 23.4924 230.477 23.0909C231.091 22.6894 231.788 22.3864 232.568 22.1818C233.356 21.9773 234.182 21.8333 235.045 21.75C236.061 21.6439 236.879 21.5455 237.5 21.4545C238.121 21.3561 238.572 21.2121 238.852 21.0227C239.133 20.8333 239.273 20.553 239.273 20.1818V20.1136C239.273 19.3939 239.045 18.8371 238.591 18.4432C238.144 18.0492 237.508 17.8523 236.682 17.8523C235.811 17.8523 235.117 18.0455 234.602 18.4318C234.087 18.8106 233.746 19.2879 233.58 19.8636L229.102 19.5C229.33 18.4394 229.777 17.5227 230.443 16.75C231.11 15.9697 231.97 15.3712 233.023 14.9545C234.083 14.5303 235.311 14.3182 236.705 14.3182C237.674 14.3182 238.602 14.4318 239.489 14.6591C240.383 14.8864 241.174 15.2386 241.864 15.7159C242.561 16.1932 243.11 16.8068 243.511 17.5568C243.913 18.2992 244.114 19.1894 244.114 20.2273V32H239.523V29.5795H239.386C239.106 30.125 238.731 30.6061 238.261 31.0227C237.792 31.4318 237.227 31.7538 236.568 31.9886C235.909 32.2159 235.148 32.3295 234.284 32.3295ZM235.67 28.9886C236.383 28.9886 237.011 28.8485 237.557 28.5682C238.102 28.2803 238.53 27.8939 238.841 27.4091C239.152 26.9242 239.307 26.375 239.307 25.7614V23.9091C239.155 24.0076 238.947 24.0985 238.682 24.1818C238.424 24.2576 238.133 24.3295 237.807 24.3977C237.481 24.4583 237.155 24.5152 236.83 24.5682C236.504 24.6136 236.208 24.6553 235.943 24.6932C235.375 24.7765 234.879 24.9091 234.455 25.0909C234.03 25.2727 233.701 25.5189 233.466 25.8295C233.231 26.1326 233.114 26.5114 233.114 26.9659C233.114 27.625 233.352 28.1288 233.83 28.4773C234.314 28.8182 234.928 28.9886 235.67 28.9886Z" fill="#0075FF"/>
</svg>
