<svg width="59" height="35" viewBox="0 0 59 35" fill="none" xmlns="http://www.w3.org/2000/svg">
<mask id="path-1-outside-1_2008_3" maskUnits="userSpaceOnUse" x="-1" y="-1" width="61" height="37" fill="black">
<rect fill="white" x="-1" y="-1" width="61" height="37"/>
<path d="M21.2617 32.7783C22.1243 32.7783 22.5557 33.1445 22.5557 33.877C22.5557 34.1699 22.3766 34.4303 22.0186 34.6582C21.6768 34.8861 21.0583 35 20.1631 35H0.338867V0.454102H12.79V33.3887H17.3555C18.3809 33.3887 19.2598 33.291 19.9922 33.0957C20.7409 32.8841 21.1641 32.7783 21.2617 32.7783Z"/>
<path d="M43.4053 24.8682L45.5781 24.9658C48.7357 24.9658 51.3398 23.9242 53.3906 21.8408C55.474 19.7412 56.5645 17.0231 56.6621 13.6865C56.8411 8.54329 54.3672 5.06836 49.2402 3.26172C47.3197 2.57812 44.8213 2.23633 41.7451 2.23633H39.6943V35H27.2432V0.454102H36.5938C41.6393 0.454102 44.6829 0.527344 45.7246 0.673828C46.7663 0.820312 47.8486 1.00749 48.9717 1.23535C50.111 1.46322 51.3317 1.95964 52.6338 2.72461C53.9521 3.48958 55.0671 4.40104 55.9785 5.45898C57.8177 7.60742 58.7048 10.1302 58.6396 13.0273C58.542 16.722 57.4596 19.7982 55.3926 22.2559C53.293 24.7298 50.3958 26.2598 46.7012 26.8457C45.627 26.9922 44.7806 27.0654 44.1621 27.0654C42.6973 27.0654 41.9648 26.6667 41.9648 25.8691C41.9648 25.5762 42.0951 25.3402 42.3555 25.1611C42.6159 24.9658 42.9658 24.8682 43.4053 24.8682Z"/>
</mask>
<path d="M21.2617 32.7783C22.1243 32.7783 22.5557 33.1445 22.5557 33.877C22.5557 34.1699 22.3766 34.4303 22.0186 34.6582C21.6768 34.8861 21.0583 35 20.1631 35H0.338867V0.454102H12.79V33.3887H17.3555C18.3809 33.3887 19.2598 33.291 19.9922 33.0957C20.7409 32.8841 21.1641 32.7783 21.2617 32.7783Z" fill="black"/>
<path d="M22.0186 34.6582L21.4817 33.8145L21.4727 33.8203L21.4639 33.8262L22.0186 34.6582ZM0.338867 35H-0.661133V36H0.338867V35ZM0.338867 0.454102V-0.545898H-0.661133V0.454102H0.338867ZM12.79 0.454102H13.79V-0.545898H12.79V0.454102ZM12.79 33.3887H11.79V34.3887H12.79V33.3887ZM19.9922 33.0957L20.2499 34.0619L20.257 34.06L20.2641 34.058L19.9922 33.0957ZM21.2617 33.7783C21.4099 33.7783 21.5033 33.7944 21.5555 33.8092C21.605 33.8232 21.6049 33.8323 21.5849 33.8153C21.5614 33.7953 21.5477 33.7712 21.544 33.7617C21.5426 33.7583 21.5557 33.7898 21.5557 33.877H23.5557C23.5557 33.3099 23.381 32.7166 22.8794 32.2907C22.4092 31.8914 21.8108 31.7783 21.2617 31.7783V33.7783ZM21.5557 33.877C21.5557 33.8465 21.5606 33.8138 21.5707 33.7828C21.5805 33.7524 21.5921 33.7331 21.5973 33.7255C21.6021 33.7186 21.5993 33.7245 21.5809 33.7413C21.5623 33.7581 21.5309 33.7832 21.4817 33.8145L22.5554 35.5019C23.0618 35.1796 23.5557 34.6501 23.5557 33.877H21.5557ZM21.4639 33.8262C21.3918 33.8742 21.0451 34 20.1631 34V36C21.0715 36 21.9617 35.8979 22.5733 35.4903L21.4639 33.8262ZM20.1631 34H0.338867V36H20.1631V34ZM1.33887 35V0.454102H-0.661133V35H1.33887ZM0.338867 1.4541H12.79V-0.545898H0.338867V1.4541ZM11.79 0.454102V33.3887H13.79V0.454102H11.79ZM12.79 34.3887H17.3555V32.3887H12.79V34.3887ZM17.3555 34.3887C18.4395 34.3887 19.4098 34.286 20.2499 34.0619L19.7345 32.1295C19.1098 32.2961 18.3223 32.3887 17.3555 32.3887V34.3887ZM20.2641 34.058C20.635 33.9532 20.9167 33.8771 21.1136 33.8278C21.2129 33.803 21.2822 33.7871 21.3265 33.7781C21.3488 33.7736 21.3574 33.7723 21.356 33.7725C21.355 33.7727 21.3473 33.7738 21.3347 33.775C21.3238 33.7761 21.2975 33.7783 21.2617 33.7783V31.7783C21.1226 31.7783 20.9839 31.8069 20.9284 31.8182C20.8425 31.8356 20.7409 31.8594 20.6286 31.8875C20.4024 31.9441 20.0981 32.0266 19.7202 32.1334L20.2641 34.058ZM43.4053 24.8682L43.4502 23.8692L43.4277 23.8682H43.4053V24.8682ZM45.5781 24.9658L45.5332 25.9648L45.5557 25.9658H45.5781V24.9658ZM53.3906 21.8408L52.6808 21.1365L52.678 21.1393L53.3906 21.8408ZM56.6621 13.6865L55.6627 13.6517L55.6625 13.6573L56.6621 13.6865ZM49.2402 3.26172L48.9049 4.20383L48.9079 4.20487L49.2402 3.26172ZM39.6943 2.23633V1.23633H38.6943V2.23633H39.6943ZM39.6943 35V36H40.6943V35H39.6943ZM27.2432 35H26.2432V36H27.2432V35ZM27.2432 0.454102V-0.545898H26.2432V0.454102H27.2432ZM48.9717 1.23535L48.7728 2.21539L48.7756 2.21593L48.9717 1.23535ZM52.6338 2.72461L52.1272 3.58683L52.1319 3.58955L52.6338 2.72461ZM55.9785 5.45898L56.7382 4.80866L56.7361 4.80628L55.9785 5.45898ZM58.6396 13.0273L59.6393 13.0538L59.6394 13.0498L58.6396 13.0273ZM55.3926 22.2559L56.155 22.9029L56.1579 22.8995L55.3926 22.2559ZM46.7012 26.8457L46.8363 27.8365L46.8471 27.8351L46.8578 27.8334L46.7012 26.8457ZM42.3555 25.1611L42.922 25.9852L42.939 25.9735L42.9555 25.9611L42.3555 25.1611ZM43.3604 25.8672L45.5332 25.9648L45.623 23.9668L43.4502 23.8692L43.3604 25.8672ZM45.5781 25.9658C48.9799 25.9658 51.8485 24.8329 54.1033 22.5423L52.678 21.1393C50.8312 23.0154 48.4915 23.9658 45.5781 23.9658V25.9658ZM54.1005 22.5452C56.3859 20.2419 57.5576 17.2708 57.6617 13.7158L55.6625 13.6573C55.5713 16.7754 54.562 19.2405 52.6808 21.1365L54.1005 22.5452ZM57.6615 13.7213C57.757 10.9767 57.1447 8.59409 55.7556 6.64293C54.37 4.69674 52.277 3.27155 49.5726 2.31856L48.9079 4.20487C51.3304 5.05852 53.0379 6.27413 54.1263 7.80287C55.2111 9.32664 55.7462 11.2531 55.6627 13.6517L57.6615 13.7213ZM49.5756 2.31962C47.5072 1.58344 44.8834 1.23633 41.7451 1.23633V3.23633C44.7592 3.23633 47.1321 3.57281 48.9049 4.20382L49.5756 2.31962ZM41.7451 1.23633H39.6943V3.23633H41.7451V1.23633ZM38.6943 2.23633V35H40.6943V2.23633H38.6943ZM39.6943 34H27.2432V36H39.6943V34ZM28.2432 35V0.454102H26.2432V35H28.2432ZM27.2432 1.4541H36.5938V-0.545898H27.2432V1.4541ZM36.5938 1.4541C41.6739 1.4541 44.6306 1.52982 45.5854 1.66408L45.8639 -0.316428C44.7353 -0.475132 41.6047 -0.545898 36.5938 -0.545898V1.4541ZM45.5854 1.66408C46.6054 1.80753 47.6678 1.99118 48.7728 2.21538L49.1705 0.255321C48.0295 0.0237984 46.9272 -0.166902 45.8639 -0.316428L45.5854 1.66408ZM48.7756 2.21593C49.7783 2.41648 50.8941 2.86232 52.1272 3.58682L53.1403 1.8624C51.7694 1.05695 50.4437 0.509948 49.1678 0.254771L48.7756 2.21593ZM52.1319 3.58955C53.3626 4.30365 54.3886 5.14565 55.2209 6.11169L56.7361 4.80628C55.7455 3.65643 54.5417 2.67552 53.1357 1.85967L52.1319 3.58955ZM55.2189 6.1093C56.8936 8.06567 57.6996 10.3472 57.6399 13.0049L59.6394 13.0498C59.7099 9.91319 58.7418 7.14918 56.7382 4.80867L55.2189 6.1093ZM57.64 13.0009C57.5474 16.5051 56.5271 19.3534 54.6273 21.6122L56.1579 22.8995C58.3922 20.243 59.5366 16.9389 59.6393 13.0538L57.64 13.0009ZM54.6301 21.6088C52.7086 23.8729 50.0413 25.3035 46.5445 25.858L46.8578 27.8334C50.7504 27.216 53.8773 25.5867 56.155 22.9029L54.6301 21.6088ZM46.5661 25.8549C45.5087 25.9991 44.714 26.0654 44.1621 26.0654V28.0654C44.8472 28.0654 45.7452 27.9853 46.8363 27.8365L46.5661 25.8549ZM44.1621 26.0654C43.4877 26.0654 43.1391 25.968 42.9923 25.8881C42.934 25.8563 42.9391 25.8444 42.955 25.8704C42.9724 25.8987 42.9648 25.9101 42.9648 25.8691H40.9648C40.9648 26.227 41.0489 26.5873 41.2493 26.9147C41.4483 27.2397 41.7282 27.477 42.036 27.6446C42.6216 27.9635 43.3717 28.0654 44.1621 28.0654V26.0654ZM42.9648 25.8691C42.9648 25.8704 42.9646 25.8814 42.9603 25.8991C42.9558 25.9173 42.9484 25.9369 42.9381 25.9555C42.9161 25.9952 42.8979 26.0018 42.922 25.9852L41.7889 24.3371C41.2824 24.6854 40.9648 25.2174 40.9648 25.8691H42.9648ZM42.9555 25.9611C42.9912 25.9343 43.1073 25.8682 43.4053 25.8682V23.8682C42.8243 23.8682 42.2406 23.9973 41.7555 24.3611L42.9555 25.9611Z" fill="black" mask="url(#path-1-outside-1_2008_3)"/>
</svg>
