<svg width="40" height="39" viewBox="0 0 40 39" fill="none" xmlns="http://www.w3.org/2000/svg">
<path d="M19.1423 0.930957C19.5306 0.283116 20.4694 0.283115 20.8577 0.930956L27.3666 11.7898C27.4511 11.9309 27.5691 12.0489 27.7102 12.1334L38.569 18.6423C39.2169 19.0306 39.2169 19.9694 38.569 20.3577L27.7102 26.8666C27.5691 26.9511 27.4511 27.0691 27.3666 27.2102L20.8577 38.069C20.4694 38.7169 19.5306 38.7169 19.1423 38.069L12.6334 27.2102C12.5489 27.0691 12.4309 26.9511 12.2898 26.8666L1.43096 20.3577C0.783116 19.9694 0.783115 19.0306 1.43096 18.6423L12.2898 12.1334C12.4309 12.0489 12.5489 11.9309 12.6334 11.7898L19.1423 0.930957Z" fill="#0075FF"/>
</svg>
